<?xml version="1.0" encoding="UTF-8"?>
<svg id="Camada_1" xmlns="http://www.w3.org/2000/svg" version="1.1" viewBox="0 0 155 36">
  <!-- Generator: Adobe Illustrator 29.2.1, SVG Export Plug-In . SVG Version: 2.1.0 Build 116)  -->
  <defs>
    <style>
      .st0 {
        fill: #09482b;
      }

      .st1 {
        fill: #ef473f;
      }

      .st2 {
        fill: #f7c34b;
      }
    </style>
  </defs>
  <g id="LOGO_POLIPET_HORIZONTAL">
    <g id="SÃMBOLO_POLIPET">
      <path class="st1" d="M22.2.5c0,0,.1,0,.2,0v27.3c-.3,3.2-2.8,5.9-6.1,6.2s0,0,0,0,0,0,0,0c-2.3,0-4.7,0-7,0s-.1,0-.2,0,0,0-.1,0c-1.1,0-2.5-.5-3.4-1.1-2.3-1.2-3.9-3.5-4.4-6,1.1.1,2.1.2,3.2.3,3.7.3,8.2.5,10.6-2.9s2.3-6.5-.2-8.1-4.1-.3-5.1,1.6-.7,3.2-2,4.4-3.9,1.4-5.8,1.3-.6,0-.8,0c0-.5,0-1.1,0-1.6.2-5.8,2.5-11.8,6.8-15.7S17,.9,22.2.5Z"/>
      <path class="st2" d="M24.4.5c5.3.4,10.9,2.3,14.8,5.9s6.5,10,6.6,15.7,0,.3,0,.5,0,.3,0,.5,0,.3,0,.4,0,0,0,0c-1.7.1-3.6.3-5.2-.4s-1.7-.9-2.3-1.9-.6-2.1-1.1-3.2c-.9-1.8-2.7-2.9-4.7-2-3.3,1.5-2.2,6.7-.3,8.9s7,2.7,10.5,2.4,1.9-.2,2.9-.3c-.6,2.3-1.9,4.5-4,5.8s-2.6,1.2-3.9,1.3-.1,0-.2,0,0,0-.1,0c-2.4,0-4.7,0-7.1,0,0,0,0,0-.1,0-1.3,0-2.9-.8-3.9-1.6s-2.1-2.8-2.2-4.4V.6s.2,0,.2,0Z"/>
    </g>
    <g>
      <path class="st0" d="M55.3,29.5c-.5-.5-.7-1.2-.7-2,.7,0,1.2-.1,1.5-.3.3-.2.5-.6.5-1.2v-14.8c0-.6-.2-1-.5-1.2s-.8-.4-1.5-.4c0-.4,0-.7.2-1.1s.3-.7.5-.9c2.1,0,3.7,0,5-.1s2.3-.1,3.2-.1c2.2,0,4,.3,5.3.8,1.3.5,2.3,1.4,2.8,2.4.6,1.1.9,2.4.9,3.9s-.3,2.6-1,3.7-1.7,2-3.1,2.6c-1.4.6-3.1,1-5.3,1h-1.3v2.8c0,.8,0,1.4.3,1.9s.5.7,1,.9c.5.2,1.2.2,2.1.2,0,.8-.2,1.5-.7,2h-9.2ZM62.5,19.1c1,0,1.8-.2,2.4-.5.6-.3,1-.7,1.3-1.2s.5-1,.6-1.6c0-.6.1-1.1.1-1.7,0-.8-.1-1.5-.4-2.2-.2-.7-.7-1.3-1.2-1.7-.6-.4-1.4-.6-2.4-.6s-.9,0-1.2.1v9.3c.1,0,.3,0,.4,0s.3,0,.4,0Z"/>
      <path class="st0" d="M80.7,29.9c-1.5,0-2.8-.3-4-1s-2.1-1.6-2.7-2.8c-.6-1.3-1-2.8-1-4.7s.3-3.6,1-5,1.6-2.4,2.8-3.1c1.2-.7,2.6-1,4.1-1s2.8.3,4,1c1.1.7,2,1.6,2.7,2.9.6,1.3,1,2.8,1,4.7s-.3,3.6-1,4.9c-.7,1.3-1.6,2.3-2.8,3-1.2.7-2.6,1-4.1,1ZM80.9,27.6c.4,0,.8-.2,1.2-.5.3-.3.6-.9.8-1.8s.3-2.1.3-3.7,0-3.5-.3-4.5c-.2-1-.5-1.7-.8-2.1-.4-.4-.8-.5-1.3-.5s-.8.2-1.2.5-.6.9-.8,1.8-.3,2.1-.3,3.8,0,3.4.3,4.5.5,1.7.8,2.1.8.5,1.3.5Z"/>
      <path class="st0" d="M90.7,29.5c-.2-.3-.4-.5-.5-.8s-.2-.6-.2-.9c.6,0,1.1-.1,1.3-.4.3-.3.4-.7.4-1.3V9.3c0-.5-.1-.9-.4-1.2-.3-.3-.9-.4-1.7-.4v-1.3c.5-.3,1.1-.6,1.8-.8s1.4-.4,2.1-.5c.7-.1,1.3-.2,1.7-.2s.8.1,1.1.3c.2.2.3.6.3,1.1v19.7c0,.7.1,1.1.4,1.4s.7.4,1.3.4c0,.3,0,.6-.2.9s-.3.5-.6.8h-6.9Z"/>
      <path class="st0" d="M100.6,29.5c-.2-.2-.4-.5-.5-.8s-.2-.6-.2-.9c.6,0,1.1-.1,1.4-.4.3-.3.4-.7.4-1.3v-9.2c0-.5-.1-1-.4-1.2-.3-.3-.8-.4-1.7-.4v-1.4c.3-.2.8-.4,1.5-.6s1.4-.4,2.1-.6c.8-.2,1.5-.3,2.1-.3s.8.1,1,.3.3.6.3,1.1v12.3c0,.6.2,1.1.5,1.3s.8.4,1.4.4c0,.4,0,.7-.2.9s-.3.5-.5.8h-7.1ZM104.2,10.1c-.9,0-1.6-.3-2.2-.8-.5-.5-.8-1.3-.8-2.2s.3-1.6.8-2.1,1.3-.8,2.2-.8,1.7.3,2.2.8c.5.5.8,1.3.8,2.1s-.3,1.6-.8,2.2c-.6.5-1.3.8-2.2.8Z"/>
      <path class="st0" d="M110.4,35.5c-.2-.2-.4-.5-.6-.8-.1-.3-.2-.6-.2-.9.6,0,1-.1,1.2-.4.2-.3.3-.7.3-1.3v-15.1c0-.5-.2-.9-.5-1.2s-.9-.4-1.7-.4v-1.4c.5-.3,1-.5,1.7-.8.6-.2,1.3-.4,1.9-.6s1.1-.2,1.5-.2.8,0,1.1.3c.3.2.5.5.6,1,.5-.5,1.1-.8,1.7-1,.7-.2,1.4-.3,2.1-.3,1.1,0,2.2.3,3.1.9,1,.6,1.8,1.4,2.4,2.6.6,1.2.9,2.6.9,4.4s-.4,3.7-1.2,5.1-1.8,2.5-3.1,3.3-2.7,1.1-4.3,1.1-.4,0-.6,0c-.2,0-.4,0-.7,0v2.3c0,.6.2,1.1.7,1.3.4.3.9.4,1.4.4,0,.6-.2,1.2-.7,1.7h-7ZM117.3,27.5c.9,0,1.6-.5,2.2-1.5s.9-2.7.9-4.9-.2-2.6-.5-3.5-.7-1.5-1.2-1.8-1.1-.6-1.7-.6-.6,0-.9.2v11.8c.4.2.8.3,1.2.3Z"/>
      <path class="st0" d="M135.4,29.7c-2.4,0-4.2-.7-5.6-2.2-1.4-1.5-2.1-3.6-2.1-6.3s.3-3.4,1-4.8c.7-1.3,1.6-2.4,2.8-3.1,1.2-.7,2.5-1.1,4.1-1.1s3.4.6,4.6,1.7,1.7,2.7,1.7,4.7-.1,1.5-.4,2.1c-.3.6-.8.9-1.6.9h-6.8c0,1.7.4,2.8,1.2,3.5.7.7,1.6,1,2.8,1s1.4-.1,2-.3c.6-.2,1.2-.5,1.7-.9.2.2.3.4.5.8.1.3.2.6.2.9,0,.3-.2.8-.7,1.2-.5.5-1.1.9-2,1.3-.9.4-1.9.6-3.1.6ZM133,19.3h3.2c.4,0,.6-.1.7-.4,0-.3.1-.6.1-1,0-1.3-.2-2.2-.5-2.7-.3-.4-.7-.6-1.2-.6s-.7.1-1.1.4c-.4.3-.7.8-.9,1.4-.2.7-.4,1.6-.4,2.9Z"/>
      <path class="st0" d="M149.8,29.7c-.9,0-1.7-.2-2.4-.5s-1.3-.9-1.8-1.7c-.5-.8-.7-1.9-.7-3.3v-8.7h-2v-1.9c.6,0,1.1-.4,1.6-1.1.5-.6.9-1.4,1.3-2.3s.6-1.9.7-2.8c.4,0,.7,0,1,0,.8,0,1.4.2,1.8.7s.5.9.5,1.4v3.3h3.7c0,.5,0,1,0,1.5s-.2.9-.4,1.3h-3.1v8.9c0,.7.1,1.1.4,1.3.3.2.6.3,1,.3s.8-.1,1.3-.3.8-.5,1-.8c.2.2.4.5.5.8,0,.4.1.6.1.8,0,.5-.2.9-.5,1.4s-.8.8-1.5,1.2c-.7.3-1.5.5-2.5.5Z"/>
    </g>
  </g>
</svg>